<svg version="1.1" id="Layer_1" xmlns="http://www.w3.org/2000/svg" xmlns:xlink="http://www.w3.org/1999/xlink" x="0px" y="0px"
	 width="100%" viewBox="0 0 900 900" enable-background="new 0 0 900 900" xml:space="preserve">
<path fill="#FEFFFF" opacity="1.000000" stroke="none" 
	d="
M603.000000,901.000000 
	C402.000000,901.000000 201.500000,901.000000 1.000000,901.000000 
	C1.000000,601.000000 1.000000,301.000000 1.000000,1.000000 
	C301.000000,1.000000 601.000000,1.000000 901.000000,1.000000 
	C901.000000,301.000000 901.000000,601.000000 901.000000,901.000000 
	C801.833313,901.000000 702.666687,901.000000 603.000000,901.000000 
M415.609253,867.912415 
	C433.682251,872.149353 451.701111,871.546082 469.350311,866.139648 
	C515.278625,852.070618 545.269775,812.455078 545.481201,764.852722 
	C545.974915,653.707581 545.799744,542.558472 545.538574,431.411865 
	C545.476624,405.096741 533.448303,385.101440 509.955200,372.665344 
	C490.527832,362.381439 470.917328,352.442780 451.368195,342.389587 
	C413.331940,322.829376 375.282776,303.294159 337.237152,283.752167 
	C298.148407,263.674438 258.925537,243.852356 220.016235,223.432770 
	C196.156830,210.911377 171.498337,206.092911 144.753036,210.966263 
	C101.227982,218.897125 65.681557,256.195557 60.013760,300.750732 
	C54.437321,344.587677 76.333870,388.068542 115.570007,409.060791 
	C148.721130,426.797424 182.349380,443.643646 215.798569,460.821411 
	C245.712463,476.183624 275.618530,491.562592 305.627716,506.737122 
	C323.975372,516.014832 332.536743,530.301636 332.473541,551.210571 
	C332.253448,624.010986 332.783905,696.813660 333.057709,769.615356 
	C333.102905,781.637024 336.100952,793.152466 340.828918,804.004272 
	C355.208893,837.009644 379.607452,858.700134 415.609253,867.912415 
M829.790588,241.703156 
	C824.974365,232.804779 820.794434,223.479645 815.183716,215.114166 
	C807.873169,204.214172 798.773193,194.747665 788.192017,186.757004 
	C773.424316,175.604752 757.161926,167.432266 739.199707,163.319839 
	C724.781311,160.018799 710.072937,159.387604 695.171875,160.894318 
	C672.429138,163.193893 651.929260,171.084473 633.558411,184.272110 
	C614.582214,197.894318 599.651489,215.254593 590.794556,237.035645 
	C586.380127,247.891525 582.500183,259.250397 580.578796,270.749420 
	C578.857239,281.052734 579.926514,291.865326 580.171936,302.443787 
	C580.498840,316.532104 584.729675,329.774292 590.270691,342.545532 
	C597.765320,359.819733 608.653748,374.659210 622.738342,387.308502 
	C632.749146,396.299164 643.887878,403.368652 655.980713,408.932343 
	C673.756287,417.110443 692.497375,420.282257 712.123108,420.042511 
	C734.817566,419.765198 755.624573,413.558044 775.021912,402.347961 
	C794.224243,391.250488 809.271545,375.846436 820.736511,356.803955 
	C830.748779,340.174255 836.877563,322.182800 838.675293,303.044464 
	C840.622498,282.314667 837.978699,261.913086 829.790588,241.703156 
z"/>
<path fill="#0483F7" opacity="1.000000" stroke="none" 
	d="
M415.206421,867.798706 
	C379.607452,858.700134 355.208893,837.009644 340.828918,804.004272 
	C336.100952,793.152466 333.102905,781.637024 333.057709,769.615356 
	C332.783905,696.813660 332.253448,624.010986 332.473541,551.210571 
	C332.536743,530.301636 323.975372,516.014832 305.627716,506.737122 
	C275.618530,491.562592 245.712463,476.183624 215.798569,460.821411 
	C182.349380,443.643646 148.721130,426.797424 115.570007,409.060791 
	C76.333870,388.068542 54.437321,344.587677 60.013760,300.750732 
	C65.681557,256.195557 101.227982,218.897125 144.753036,210.966263 
	C171.498337,206.092911 196.156830,210.911377 220.016235,223.432770 
	C258.925537,243.852356 298.148407,263.674438 337.237152,283.752167 
	C375.282776,303.294159 413.331940,322.829376 451.368195,342.389587 
	C470.917328,352.442780 490.527832,362.381439 509.955200,372.665344 
	C533.448303,385.101440 545.476624,405.096741 545.538574,431.411865 
	C545.799744,542.558472 545.974915,653.707581 545.481201,764.852722 
	C545.269775,812.455078 515.278625,852.070618 469.350311,866.139648 
	C451.701111,871.546082 433.682251,872.149353 415.206421,867.798706 
z"/>
<path fill="#A2DFFC" opacity="1.000000" stroke="none" 
	d="
M829.939819,242.059586 
	C837.978699,261.913086 840.622498,282.314667 838.675293,303.044464 
	C836.877563,322.182800 830.748779,340.174255 820.736511,356.803955 
	C809.271545,375.846436 794.224243,391.250488 775.021912,402.347961 
	C755.624573,413.558044 734.817566,419.765198 712.123108,420.042511 
	C692.497375,420.282257 673.756287,417.110443 655.980713,408.932343 
	C643.887878,403.368652 632.749146,396.299164 622.738342,387.308502 
	C608.653748,374.659210 597.765320,359.819733 590.270691,342.545532 
	C584.729675,329.774292 580.498840,316.532104 580.171936,302.443787 
	C579.926514,291.865326 578.857239,281.052734 580.578796,270.749420 
	C582.500183,259.250397 586.380127,247.891525 590.794556,237.035645 
	C599.651489,215.254593 614.582214,197.894318 633.558411,184.272110 
	C651.929260,171.084473 672.429138,163.193893 695.171875,160.894318 
	C710.072937,159.387604 724.781311,160.018799 739.199707,163.319839 
	C757.161926,167.432266 773.424316,175.604752 788.192017,186.757004 
	C798.773193,194.747665 807.873169,204.214172 815.183716,215.114166 
	C820.794434,223.479645 824.974365,232.804779 829.939819,242.059586 
M598.941833,226.561951 
	C587.863953,245.455200 582.565247,266.018066 581.993835,287.753387 
	C581.372375,311.392639 587.279663,333.473755 599.180847,353.940063 
	C616.705505,384.076782 642.799072,403.438171 675.947571,412.733826 
	C696.434143,418.478760 717.389404,418.742126 738.483582,413.552094 
	C760.880676,408.041504 780.327881,397.621429 796.864502,381.860992 
	C817.891846,361.820435 830.537476,337.296478 834.658569,308.419586 
	C837.497009,288.530151 836.124268,268.910980 829.623291,250.009537 
	C817.887695,215.888382 795.769165,190.506927 762.889465,175.209595 
	C731.763184,160.728073 699.505066,159.391449 667.221008,170.349884 
	C637.896729,180.303680 615.206787,199.171921 598.941833,226.561951 
z"/>
<path fill="#02B7FB" opacity="1.000000" stroke="none" 
	d="
M599.110046,226.235764 
	C615.206787,199.171921 637.896729,180.303680 667.221008,170.349884 
	C699.505066,159.391449 731.763184,160.728073 762.889465,175.209595 
	C795.769165,190.506927 817.887695,215.888382 829.623291,250.009537 
	C836.124268,268.910980 837.497009,288.530151 834.658569,308.419586 
	C830.537476,337.296478 817.891846,361.820435 796.864502,381.860992 
	C780.327881,397.621429 760.880676,408.041504 738.483582,413.552094 
	C717.389404,418.742126 696.434143,418.478760 675.947571,412.733826 
	C642.799072,403.438171 616.705505,384.076782 599.180847,353.940063 
	C587.279663,333.473755 581.372375,311.392639 581.993835,287.753387 
	C582.565247,266.018066 587.863953,245.455200 599.110046,226.235764 
z"/>
</svg>